<svg xmlns="http://www.w3.org/2000/svg" width="1459" height="494" fill="none" viewBox="0 0 1459 494">
  <path fill="#AA6A00" stroke="#AA6A00" stroke-width="5" d="M63.86 47.399c3.561-4.354 9.841-4.92 14.265-1.708.93.675 1.864 1.346 2.8 2.011 5.13 3.644 6.058 10.9 2.1 15.751C48.315 105.993 27.5 160.313 27.5 219.5c0 136.414 110.586 247 247 247s247-110.586 247-247c0-58.988-20.675-113.14-55.176-155.616-3.947-4.86-3.001-12.114 2.136-15.746a358.43 358.43 0 0 0 2.805-2.005c4.43-3.2 10.709-2.622 14.26 1.74C523.644 94.685 546.5 154.427 546.5 219.5c0 150.222-121.779 272-272 272s-272-121.778-272-272c0-65.293 23.01-125.219 61.36-172.101Zm222.833 66.862c15.503 0 29.267 3.883 41.205 11.708 11.924 7.814 21.183 18.87 27.802 33.065 6.631 14.221 9.903 30.903 9.903 49.977 0 19.226-3.27 36.025-9.9 50.322l-.003.005c-6.616 14.189-15.831 25.279-27.669 33.171l-.01.007c-11.86 7.826-25.509 11.711-40.862 11.711-11.734 0-21.4-1.937-28.81-6.017l-.01-.006-.01-.005c-7.126-4.003-12.736-8.596-16.721-13.826l-.011-.015c-2.529-3.372-4.679-6.374-6.45-8.998v92.231h-32.488v-251h31.557v27.55c1.892-2.801 4.273-6.137 7.139-10l.004-.005c3.907-5.236 9.406-9.798 16.386-13.73 7.348-4.171 17.066-6.145 28.948-6.145Zm-3.261 29.693c-10.743 0-19.59 2.716-26.695 8.008l-.006.005-.006.005c-7.171 5.268-12.65 12.696-16.386 22.411l-.002.006c-3.747 9.668-5.655 21.037-5.655 34.156 0 13.268 1.944 24.873 5.772 34.858 3.819 9.884 9.35 17.521 16.543 23.026 7.108 5.362 15.87 8.105 26.435 8.105 11.033 0 20.05-2.898 27.222-8.549 7.367-5.821 12.938-13.658 16.679-23.609l.004-.01c3.838-10.083 5.776-21.347 5.776-33.821 0-12.322-1.901-23.348-5.657-33.113l-.004-.011-.004-.012c-3.659-9.781-9.179-17.412-16.526-22.996l-.011-.007-.012-.009c-7.167-5.575-16.263-8.443-27.467-8.443Z"/>
  <path fill="#EBEBEB" d="M700.807 322.193c-11.337 0-21.626-2.135-30.867-6.406-9.24-4.349-16.578-10.599-22.014-18.753-5.435-8.231-8.153-18.17-8.153-29.818 0-10.25 2.019-18.559 6.057-24.926 4.037-6.445 9.434-11.493 16.19-15.142 6.756-3.65 14.21-6.368 22.364-8.154a272.37 272.37 0 0 1 24.809-4.426c10.871-1.398 19.685-2.446 26.441-3.145 6.833-.776 11.803-2.057 14.909-3.843 3.183-1.786 4.775-4.893 4.775-9.319v-.931c0-11.493-3.145-20.423-9.434-26.79-6.213-6.368-15.647-9.551-28.304-9.551-13.124 0-23.412 2.873-30.867 8.619-7.454 5.746-12.696 11.881-15.724 18.403l-26.091-9.318c4.659-10.871 10.871-19.335 18.636-25.392 7.843-6.134 16.385-10.405 25.625-12.812 9.318-2.485 18.481-3.728 27.489-3.728 5.746 0 12.346.699 19.801 2.097 7.532 1.32 14.792 4.077 21.781 8.27 7.066 4.193 12.929 10.522 17.588 18.986 4.659 8.464 6.989 19.801 6.989 34.011V318h-27.489v-24.227h-1.398c-1.863 3.882-4.969 8.037-9.318 12.463-4.348 4.426-10.133 8.192-17.355 11.298-7.221 3.106-16.035 4.659-26.44 4.659ZM705 297.5c10.871 0 20.034-2.135 27.489-6.406 7.532-4.271 13.2-9.784 17.005-16.54 3.883-6.756 5.824-13.861 5.824-21.315V228.08c-1.165 1.397-3.727 2.679-7.687 3.843-3.883 1.087-8.387 2.058-13.512 2.912a611.009 611.009 0 0 1-14.792 2.097 715.12 715.12 0 0 0-11.532 1.398c-7.143.931-13.822 2.446-20.034 4.542-6.134 2.019-11.104 5.086-14.909 9.202-3.727 4.038-5.591 9.551-5.591 16.54 0 9.551 3.534 16.772 10.6 21.664 7.144 4.815 16.19 7.222 27.139 7.222ZM852.659 318V139.091h26.557v27.023h1.864c3.261-8.853 9.163-16.035 17.704-21.549 8.542-5.513 18.171-8.27 28.887-8.27 2.019 0 4.542.039 7.571.117 3.028.078 5.319.194 6.872.349v27.955c-.932-.233-3.067-.582-6.406-1.048-3.262-.544-6.717-.816-10.367-.816-8.697 0-16.462 1.825-23.295 5.475-6.756 3.572-12.114 8.541-16.074 14.909-3.883 6.29-5.824 13.472-5.824 21.548V318h-27.489Zm194.371 4.193c-11.34 0-21.63-2.135-30.87-6.406-9.24-4.349-16.579-10.599-22.015-18.753-5.435-8.231-8.153-18.17-8.153-29.818 0-10.25 2.019-18.559 6.057-24.926 4.038-6.445 9.431-11.493 16.191-15.142 6.75-3.65 14.21-6.368 22.36-8.154 8.23-1.863 16.5-3.339 24.81-4.426 10.87-1.398 19.69-2.446 26.44-3.145 6.84-.776 11.81-2.057 14.91-3.843 3.19-1.786 4.78-4.893 4.78-9.319v-.931c0-11.493-3.15-20.423-9.44-26.79-6.21-6.368-15.64-9.551-28.3-9.551-13.12 0-23.41 2.873-30.87 8.619-7.45 5.746-12.69 11.881-15.72 18.403l-26.093-9.318c4.659-10.871 10.873-19.335 18.633-25.392 7.85-6.134 16.39-10.405 25.63-12.812 9.32-2.485 18.48-3.728 27.49-3.728 5.74 0 12.34.699 19.8 2.097 7.53 1.32 14.79 4.077 21.78 8.27 7.07 4.193 12.93 10.522 17.59 18.986s6.99 19.801 6.99 34.011V318h-27.49v-24.227h-1.4c-1.86 3.882-4.97 8.037-9.32 12.463-4.35 4.426-10.13 8.192-17.35 11.298-7.23 3.106-16.04 4.659-26.44 4.659Zm4.19-24.693c10.87 0 20.03-2.135 27.49-6.406 7.53-4.271 13.2-9.784 17-16.54 3.89-6.756 5.83-13.861 5.83-21.315V228.08c-1.17 1.397-3.73 2.679-7.69 3.843-3.88 1.087-8.39 2.058-13.51 2.912-5.05.777-9.98 1.476-14.79 2.097-4.74.543-8.58 1.009-11.54 1.398-7.14.931-13.82 2.446-20.03 4.542-6.13 2.019-11.1 5.086-14.91 9.202-3.73 4.038-5.59 9.551-5.59 16.54 0 9.551 3.53 16.772 10.6 21.664 7.14 4.815 16.19 7.222 27.14 7.222Zm147.66 20.5V139.091h26.56v27.954h2.33c3.72-9.551 9.74-16.966 18.05-22.247 8.31-5.358 18.29-8.037 29.93-8.037 11.81 0 21.63 2.679 29.47 8.037 7.92 5.281 14.1 12.696 18.52 22.247h1.87c4.58-9.24 11.45-16.578 20.61-22.014 9.17-5.513 20.15-8.27 32.97-8.27 15.99 0 29.08 5.009 39.25 15.026 10.17 9.939 15.26 25.431 15.26 46.474V318h-27.49V198.261c0-13.2-3.61-22.635-10.83-28.304-7.23-5.668-15.73-8.502-25.51-8.502-12.58 0-22.33 3.804-29.24 11.414-6.91 7.533-10.36 17.084-10.36 28.654V318h-27.96V195.466c0-10.172-3.3-18.365-9.9-24.577-6.6-6.29-15.1-9.434-25.51-9.434-7.14 0-13.82 1.902-20.03 5.707-6.14 3.805-11.11 9.085-14.91 15.841-3.73 6.678-5.59 14.404-5.59 23.179V318h-27.49Z"/>
</svg>
