<svg xmlns="http://www.w3.org/2000/svg" fill="none" viewBox="0 0 549 453">
  <path fill="#AA6A00" stroke="#AA6A00" stroke-width="5" d="M63.86 6.254c3.56-4.354 9.84-4.92 14.264-1.708.93.675 1.864 1.346 2.8 2.011 5.13 3.644 6.058 10.9 2.1 15.751-34.71 42.54-55.525 96.86-55.525 156.047 0 136.414 110.586 247 247 247s247-110.586 247-247c0-58.988-20.675-113.14-55.176-155.616-3.947-4.86-3.001-12.114 2.136-15.746.938-.664 1.873-1.332 2.805-2.005 4.43-3.201 10.709-2.622 14.26 1.74C523.644 53.54 546.5 113.281 546.5 178.355c0 150.221-121.779 272-272 272s-272-121.779-272-272c0-65.293 23.01-125.219 61.36-172.101Zm222.833 66.862c15.503 0 29.267 3.883 41.205 11.708 11.924 7.814 21.183 18.87 27.802 33.065 6.631 14.221 9.903 30.903 9.903 49.977 0 19.226-3.27 36.024-9.9 50.322l-.003.005c-6.616 14.189-15.831 25.279-27.669 33.171l-.01.007c-11.86 7.826-25.509 11.711-40.862 11.711-11.734 0-21.4-1.937-28.81-6.017l-.01-.006-.01-.005c-7.126-4.003-12.736-8.597-16.721-13.826l-.011-.016c-2.529-3.371-4.679-6.373-6.45-8.998v92.232h-32.488v-251h31.557v27.55c1.892-2.801 4.273-6.137 7.139-10l.004-.005c3.907-5.236 9.406-9.798 16.386-13.73 7.348-4.172 17.066-6.145 28.948-6.145Zm-3.261 29.693c-10.743 0-19.59 2.716-26.695 8.008l-.006.005-.006.005c-7.171 5.268-12.65 12.696-16.386 22.411l-.002.006c-3.747 9.668-5.655 21.037-5.655 34.156 0 13.268 1.944 24.872 5.772 34.857 3.819 9.885 9.35 17.522 16.543 23.027 7.108 5.362 15.87 8.105 26.435 8.105 11.033 0 20.05-2.898 27.222-8.55 7.367-5.82 12.938-13.657 16.679-23.608l.004-.01c3.838-10.083 5.776-21.347 5.776-33.821 0-12.322-1.901-23.348-5.657-33.113l-.004-.011-.004-.012c-3.659-9.781-9.179-17.412-16.526-22.996l-.011-.008-.012-.008c-7.167-5.575-16.263-8.443-27.467-8.443Z"/>
</svg>
